<?xml version="1.0" encoding="utf-8"?>
<!-- Generator: Adobe Illustrator 16.0.0, SVG Export Plug-In . SVG Version: 6.00 Build 0)  -->
<!DOCTYPE svg PUBLIC "-//W3C//DTD SVG 1.1//EN" "http://www.w3.org/Graphics/SVG/1.1/DTD/svg11.dtd">
<svg version="1.1" id="Layer_1" xmlns="http://www.w3.org/2000/svg" xmlns:xlink="http://www.w3.org/1999/xlink" x="0px" y="0px"
	 width="45.723px" height="25.563px" style="background:#fafafa" viewBox="0 0 45.723 25.563" enable-background="new 0 0 45.723 25.563" xml:space="preserve">
<g id="theme-shapes">
	<g opacity="0.03">
		<g>
			<g>
				<polygon fill="#D62B69" points="27.91,2.648 25.287,1.02 25.287,4.275 				"/>
				<polygon fill="#DF3469" points="21.676,6.45 19.053,4.822 19.053,8.078 				"/>
				<polygon fill="#F24769" points="18.49,8.291 15.867,6.663 15.867,9.917 				"/>
				<polygon fill="#FF6069" points="24.821,8.271 22.198,6.643 22.198,9.898 				"/>
				<polygon fill="#F24769" points="27.997,13.791 25.373,12.164 25.373,15.416 				"/>
				<polygon fill="#F24769" points="15.186,2.829 12.563,1.201 12.563,4.457 				"/>
				<polygon fill="#F24769" points="19.171,8.27 21.793,9.898 21.793,6.643 				"/>
				<polygon fill="#F24769" points="16.054,10.14 18.68,11.768 18.68,8.511 				"/>
				<polygon fill="#DA2F69" points="16.114,6.46 18.738,8.087 18.738,4.833 				"/>
				<polygon fill="#F24769" points="9.683,6.499 12.307,8.126 12.307,4.872 				"/>
				<polygon fill="#D62B69" points="12.849,4.678 15.473,6.306 15.473,3.052 				"/>
				<polygon fill="#F24769" points="12.83,15.521 15.453,17.15 15.453,13.895 				"/>
				<polygon fill="#DA2F69" points="25.537,8.32 28.161,9.947 28.161,6.692 				"/>
				<polygon fill="#DF3469" points="19.109,4.447 24.905,7.896 24.905,1 				"/>
				<polygon fill="#DA2F69" points="19.196,11.9 24.992,15.348 24.992,8.453 				"/>
				<polygon fill="#FF6069" points="21.581,13.742 15.785,10.294 15.785,17.189 				"/>
				<polygon fill="#F24769" points="29.57,7.385 28.46,6.698 28.46,8.073 				"/>
				<polygon fill="#F24769" points="16.911,3.765 15.804,3.076 15.804,4.453 				"/>
				<polygon fill="#F24769" points="16.911,5.576 15.804,4.887 15.804,6.264 				"/>
				<polygon fill="#F24769" points="18.514,4.714 17.405,4.025 17.405,5.402 				"/>
				<polygon fill="#F24769" points="21.72,10.116 20.609,9.427 20.609,10.804 				"/>
				<polygon fill="#F24769" points="20.06,9.137 18.948,8.448 18.948,9.825 				"/>
				<polygon fill="#F24769" points="20.06,10.976 18.948,10.288 18.948,11.664 				"/>
				<polygon fill="#F24769" points="28.013,10.146 26.901,9.457 26.901,10.834 				"/>
				<polygon fill="#F24769" points="26.38,9.196 25.271,8.507 25.271,9.884 				"/>
				<polygon fill="#F24769" points="26.38,11.006 25.271,10.317 25.271,11.694 				"/>
				<polygon fill="#F24769" points="15.271,6.455 14.159,5.766 14.159,7.143 				"/>
				<polygon fill="#F24769" points="13.767,5.584 12.656,4.896 12.656,6.273 				"/>
				<polygon fill="#F24769" points="13.767,7.385 12.656,6.698 12.656,8.073 				"/>
				<polygon fill="#F24769" points="12.222,2.795 11.113,2.107 11.113,3.484 				"/>
				<polygon fill="#F24769" points="10.561,7.366 9.452,6.677 9.452,8.054 				"/>
				<polygon fill="#FF6069" points="15.995,4.668 17.105,5.357 17.105,3.981 				"/>
				<polygon fill="#F24769" points="19.171,10.161 20.282,10.849 20.282,9.472 				"/>
				<polygon fill="#F24769" points="25.433,10.101 26.542,10.789 26.542,9.412 				"/>
				<polygon fill="#F24769" points="20.714,14.611 21.824,15.301 21.824,13.924 				"/>
				<polygon fill="#F24769" points="12.73,6.49 13.841,7.177 13.841,5.8 				"/>
				<polygon fill="#F24769" points="14.392,13.039 15.503,13.727 15.503,12.351 				"/>
				<polygon fill="#DA2F69" points="11.148,3.759 12.259,4.448 12.259,3.07 				"/>
			</g>
			<g>
				<polygon fill="#F24769" points="15.405,10.229 12.78,8.601 12.78,11.858 				"/>
				<polygon fill="#F24769" points="12.258,15.633 9.634,14.004 9.634,17.258 				"/>
				<polygon fill="#F24769" points="9.072,17.471 6.448,15.846 6.448,19.098 				"/>
				<polygon fill="#F24769" points="15.405,17.451 12.78,15.822 12.78,19.078 				"/>
				<polygon fill="#FF6069" points="9.753,17.451 12.377,19.078 12.377,15.822 				"/>
				<polygon fill="#F24769" points="0.265,15.678 2.889,17.307 2.889,14.051 				"/>
				<polygon fill="#D62B69" points="16.119,17.5 18.743,19.129 18.743,15.873 				"/>
				<polygon fill="#F24769" points="20.151,16.568 19.043,15.877 19.043,17.254 				"/>
				<polygon fill="#F24769" points="7.496,12.945 6.384,12.256 6.384,13.635 				"/>
				<polygon fill="#F24769" points="7.496,14.756 6.384,14.066 6.384,15.443 				"/>
				<polygon fill="#F24769" points="9.098,13.895 7.986,13.207 7.986,14.584 				"/>
				<polygon fill="#F24769" points="12.302,19.295 11.192,18.609 11.192,19.984 				"/>
				<polygon fill="#F24769" points="10.64,18.316 9.531,17.627 9.531,19.004 				"/>
				<polygon fill="#F24769" points="10.64,20.156 9.531,19.469 9.531,20.846 				"/>
				<polygon fill="#F24769" points="18.595,19.328 17.484,18.637 17.484,20.014 				"/>
				<polygon fill="#F24769" points="16.962,18.375 15.852,17.688 15.852,19.064 				"/>
				<polygon fill="#F24769" points="16.962,20.186 15.852,19.498 15.852,20.875 				"/>
				<polygon fill="#F24769" points="5.852,15.637 4.742,14.947 4.742,16.324 				"/>
				<polygon fill="#F24769" points="4.348,16.568 3.239,15.877 3.239,17.254 				"/>
				<polygon fill="#F24769" points="2.806,11.976 1.696,11.288 1.696,12.665 				"/>
				<polygon fill="#F24769" points="1.144,16.545 0.033,15.859 0.033,17.234 				"/>
				<polygon fill="#F24769" points="6.578,13.85 7.687,14.539 7.687,13.16 				"/>
				<polygon fill="#FF6069" points="16.016,19.281 17.125,19.969 17.125,18.592 				"/>
				<polygon fill="#F24769" points="11.296,23.793 12.407,24.48 12.407,23.104 				"/>
				<polygon fill="#DA2F69" points="3.314,15.668 4.423,16.359 4.423,14.982 				"/>
				<polygon fill="#F24769" points="4.976,22.219 6.084,22.908 6.084,21.531 				"/>
				<polygon fill="#F24769" points="1.731,12.94 2.842,13.629 2.842,12.252 				"/>
			</g>
			<g>
				<polygon fill="#F24769" points="40.977,10.135 38.352,8.507 38.352,11.764 				"/>
				<polygon fill="#F24769" points="37.829,15.539 35.205,13.91 35.205,17.164 				"/>
				<polygon fill="#F24769" points="34.644,17.377 32.02,15.752 32.02,19.004 				"/>
				<polygon fill="#F24769" points="40.977,17.357 38.352,15.729 38.352,18.984 				"/>
				<polygon fill="#FF6069" points="35.324,17.357 37.948,18.984 37.948,15.729 				"/>
				<polygon fill="#F24769" points="25.836,15.584 28.461,17.213 28.461,13.957 				"/>
				<polygon fill="#D62B69" points="41.69,17.406 44.314,19.035 44.314,15.779 				"/>
				<polygon fill="#F24769" points="45.723,16.475 44.614,15.783 44.614,17.16 				"/>
				<polygon fill="#F24769" points="33.067,12.851 31.956,12.163 31.956,13.541 				"/>
				<polygon fill="#F24769" points="33.067,14.662 31.956,13.973 31.956,15.35 				"/>
				<polygon fill="#F24769" points="34.669,13.801 33.558,13.113 33.558,14.49 				"/>
				<polygon fill="#F24769" points="37.873,19.201 36.764,18.516 36.764,19.891 				"/>
				<polygon fill="#F24769" points="36.212,18.223 35.103,17.533 35.103,18.91 				"/>
				<polygon fill="#F24769" points="36.212,20.063 35.103,19.375 35.103,20.752 				"/>
				<polygon fill="#F24769" points="44.166,19.234 43.056,18.543 43.056,19.92 				"/>
				<polygon fill="#F24769" points="42.533,18.281 41.423,17.594 41.423,18.971 				"/>
				<polygon fill="#F24769" points="42.533,20.092 41.423,19.404 41.423,20.781 				"/>
				<polygon fill="#F24769" points="31.423,15.543 30.313,14.854 30.313,16.23 				"/>
				<polygon fill="#F24769" points="29.919,16.475 28.811,15.783 28.811,17.16 				"/>
				<polygon fill="#F24769" points="28.377,11.882 27.268,11.195 27.268,12.571 				"/>
				<polygon fill="#F24769" points="26.715,16.451 25.604,15.766 25.604,17.141 				"/>
				<polygon fill="#F24769" points="32.149,13.756 33.259,14.445 33.259,13.066 				"/>
				<polygon fill="#FF6069" points="41.587,19.188 42.696,19.875 42.696,18.498 				"/>
				<polygon fill="#F24769" points="36.867,23.699 37.979,24.387 37.979,23.01 				"/>
				<polygon fill="#DA2F69" points="28.886,15.574 29.994,16.266 29.994,14.889 				"/>
				<polygon fill="#F24769" points="30.547,22.125 31.655,22.814 31.655,21.438 				"/>
				<polygon fill="#F24769" points="27.303,12.846 28.414,13.535 28.414,12.158 				"/>
			</g>
		</g>
	</g>
</g>
</svg>
